<?xml version="1.0" encoding="utf-8"?>
<!-- Generator: Adobe Illustrator 27.3.1, SVG Export Plug-In . SVG Version: 6.00 Build 0)  -->
<svg version="1.1" id="Layer_3" xmlns="http://www.w3.org/2000/svg" xmlns:xlink="http://www.w3.org/1999/xlink" x="0px" y="0px"
	 viewBox="0 0 256 256" style="enable-background:new 0 0 256 256;" xml:space="preserve">
<style type="text/css">
	.st0{display:none;}
	.st1{display:inline;fill:#FFFFFF;}
	.st2{display:inline;}
	.st3{display:inline;fill:#FF2E2E;}
	.st4{fill:#FFFFFF;stroke:#FFFFFF;stroke-width:5;stroke-miterlimit:10;}
</style>
<g class="st0">
	<path class="st1" d="M48,253.5c-25.1,0-45.5-20.4-45.5-45.5V48C2.5,22.9,22.9,2.5,48,2.5h160c25.1,0,45.5,20.4,45.5,45.5v160
		c0,25.1-20.4,45.5-45.5,45.5H48z"/>
	<path class="st2" d="M208,5c23.7,0,43,19.3,43,43v160c0,23.7-19.3,43-43,43H48c-23.7,0-43-19.3-43-43V48C5,24.3,24.3,5,48,5H208
		 M208,0H48C21.5,0,0,21.5,0,48v160c0,26.5,21.5,48,48,48h160c26.5,0,48-21.5,48-48V48C256,21.5,234.5,0,208,0L208,0z"/>
</g>
<g class="st0">
	<rect x="-104.2" y="-109.5" class="st3" width="465.2" height="459.2"/>
	<path class="st2" d="M358.5-107v454.2h-460.2V-107H358.5 M363.5-112h-470.2v464.2h470.2V-112L363.5-112z"/>
</g>
<path class="st4" d="M210.8,73.6c-0.1-0.7-0.3-1.2-0.5-1.5c-0.1-0.2-0.1-0.3-0.2-0.5c-0.1-0.2-0.2-0.3-0.3-0.5
	c-0.2-0.4-0.5-0.9-0.9-1.4c-0.2-0.2-0.4-0.5-0.7-0.8l-43.5-43.5c-0.3-0.3-0.8-0.8-1.4-1.2c-0.3-0.2-0.5-0.3-0.7-0.4
	c-0.3-0.2-0.6-0.3-0.7-0.4c-0.1-0.1-0.3-0.1-0.4-0.2c-0.1,0-0.2-0.1-0.3-0.1c-0.1,0-0.1,0-0.2-0.1c-0.1-0.1-0.3-0.1-0.4-0.1
	c-1.1-0.4-2-0.4-2.5-0.4H66.6c-11.9,0-21.5,9.6-21.5,21.5l0,171.2l-3.9,20.3c-0.2,1.1-0.2,2.2,0,3.2c0.3,2,1.2,3.8,2.7,5.3
	c0.7,0.7,1.5,1.3,2.4,1.7c1.3,0.7,2.9,1,4.3,1c0.4,0,1.2,0,2.1-0.2l19.4-3.7l114.8,0c13.2,0,24-10.8,24-24V76
	C211,75.2,211,74.4,210.8,73.6z"/>
<g>
	<path d="M205.9,74.6c0-0.2-0.1-0.3-0.2-0.5c0-0.1-0.1-0.2-0.1-0.3c-0.1-0.1-0.1-0.3-0.2-0.4c-0.1-0.1-0.1-0.3-0.2-0.4l0,0
		c-0.2-0.2-0.3-0.4-0.5-0.6l-43.5-43.5c-0.2-0.2-0.4-0.4-0.6-0.5l0,0c-0.1-0.1-0.3-0.1-0.4-0.2c-0.1-0.1-0.2-0.1-0.4-0.2
		c-0.1,0-0.2-0.1-0.3-0.1c-0.2-0.1-0.3-0.1-0.5-0.2c-0.3-0.1-0.6-0.1-0.9-0.1H66.6c-9.1,0-16.5,7.4-16.5,16.5v153.4l9.1-9.1V44
		c0-4.1,3.4-7.5,7.5-7.5h86.8v39c0,2.5,2,4.5,4.5,4.5h39v138.7c0,5.5-4.5,10-10,10H99.5l-9.1,9.1h96.5c10.5,0,19-8.5,19-19V75.5
		C206,75.2,206,74.9,205.9,74.6z M162.5,43l28,28h-28V43z"/>
	<path d="M134.5,181c0.5-0.5,0.9-1.1,1.1-1.8c0.2-0.5,0.3-0.9,0.3-1.4c0-0.6-0.1-1.3-0.4-1.8c-0.2-0.5-0.5-1-0.9-1.4l-21.1-21.1
		c-0.4-0.4-0.9-0.7-1.4-0.9c-0.6-0.2-1.2-0.4-1.8-0.4c-0.5,0-1,0.1-1.4,0.3c-0.7,0.2-1.3,0.6-1.8,1.1l-23.3,22.9l-24.7,24.7
		l-6.7,6.7c-0.6,0.6-1.1,1.5-1.2,2.3l-1.1,5.6l-4,20.7c-0.1,0.5-0.1,1,0,1.4c0.1,1,0.6,1.9,1.3,2.6c0.3,0.3,0.7,0.6,1.1,0.8
		c0.6,0.3,1.4,0.5,2.1,0.5c0.3,0,0.6,0,0.9-0.1l20.7-4l5.6-1.1c0.9-0.2,1.7-0.6,2.3-1.2l6.7-6.7l24.5-24.5L134.5,181z M69.1,228.7
		c-5.5,0-10-4.5-10-10v-2.1l0,0c0.4-2.2,1.5-4.2,3.1-5.8l47.9-47.9l14.7,14.7l-47.9,47.9c-1.6,1.6-3.6,2.7-5.8,3.1l0,0L69.1,228.7
		L69.1,228.7z"/>
	<path d="M112.1,94.7H83.6V99c2.1,0.4,3.9,0.9,5.5,1.6s3,1.6,4.3,2.8c1.2,1.1,2,2.5,2.6,4.1s0.8,3.3,0.8,5v35.7c0,0.9,0,1.7,0,2.5
		l3.7-3.7c0.8-0.8,1.7-1.5,2.6-2v-32.7l47,58.3h9.5v-53.9c0-4.5,0.3-7.9,0.8-10.2c0.5-2.3,1.5-4,2.8-4.9c1.5-1.1,3.2-1.8,5-2.1
		c1.8-0.3,3.3-0.5,4.3-0.6v-4.2h-32.4v4.2c1.2,0.2,2.9,0.6,4.9,1.2s3.5,1.3,4.6,2.1c1.3,1.1,2.3,2.7,2.9,4.9
		c0.6,2.2,0.9,5.6,0.9,10.1v28.5L112.1,94.7z"/>
</g>
</svg>
