<?xml version="1.0" encoding="utf-8"?>
<!-- Generator: Adobe Illustrator 27.3.1, SVG Export Plug-In . SVG Version: 6.00 Build 0)  -->
<svg version="1.1" id="Layer_3" xmlns="http://www.w3.org/2000/svg" xmlns:xlink="http://www.w3.org/1999/xlink" x="0px" y="0px"
	 viewBox="0 0 1004.2 214.4" style="enable-background:new 0 0 1004.2 214.4;" xml:space="preserve">
<style type="text/css">
	.st0{fill:#12191C;}
</style>
<g>
	<path class="st0" d="M159.9,47.1c0-0.2-0.1-0.3-0.2-0.5c0-0.1-0.1-0.2-0.1-0.3c-0.1-0.1-0.1-0.3-0.2-0.4c-0.1-0.1-0.1-0.3-0.2-0.4
		c0,0,0,0,0,0c-0.2-0.2-0.3-0.4-0.5-0.6L115.2,1.3c-0.2-0.2-0.4-0.4-0.6-0.5c0,0,0,0,0,0c-0.1-0.1-0.3-0.1-0.4-0.2
		c-0.1-0.1-0.2-0.1-0.4-0.2c-0.1,0-0.2-0.1-0.3-0.1c-0.2-0.1-0.3-0.1-0.5-0.2C112.6,0,112.3,0,112,0H20.7C11.5,0,4.1,7.4,4.1,16.5
		v153.4l9.1-9.1V16.5c0-4.1,3.4-7.5,7.5-7.5h86.8v39c0,2.5,2,4.5,4.5,4.5h39v138.7c0,5.5-4.5,10-10,10H53.6l-9.1,9.1H141
		c10.5,0,19-8.5,19-19V48C160,47.7,160,47.4,159.9,47.1z M116.5,15.5l28,28h-28V15.5z"/>
	<path class="st0" d="M88.5,153.5c0.5-0.5,0.9-1.1,1.1-1.8c0.2-0.5,0.3-0.9,0.3-1.4c0-0.6-0.1-1.3-0.4-1.8c-0.2-0.5-0.5-1-0.9-1.4
		l-21.1-21.1c-0.4-0.4-0.9-0.7-1.4-0.9c-0.6-0.2-1.2-0.4-1.8-0.4c-0.5,0-1,0.1-1.4,0.3c-0.7,0.2-1.3,0.6-1.8,1.1L37.9,149
		l-24.7,24.7l-6.7,6.7c-0.6,0.6-1.1,1.5-1.2,2.3l-1.1,5.6l-4,20.7c-0.1,0.5-0.1,1,0,1.4c0.1,1,0.6,1.9,1.3,2.6
		c0.3,0.3,0.7,0.6,1.1,0.8c0.6,0.3,1.4,0.5,2.1,0.5c0.3,0,0.6,0,0.9-0.1l20.7-4l5.6-1.1c0.9-0.2,1.7-0.6,2.3-1.2l6.7-6.7l24.5-24.5
		L88.5,153.5z M23.1,201.2c-5.5,0-10-4.5-10-10v-2.1l0,0c0.4-2.2,1.5-4.2,3.1-5.8l47.9-47.9l14.7,14.7L31,198.1
		c-1.6,1.6-3.6,2.7-5.8,3.1h0H23.1z"/>
	<path class="st0" d="M66.1,67.2H37.7v4.3c2.1,0.4,3.9,0.9,5.5,1.6c1.6,0.7,3,1.6,4.3,2.8c1.2,1.1,2,2.5,2.6,4.1
		c0.6,1.6,0.8,3.3,0.8,5v35.7c0,0.9,0,1.7,0,2.5l3.7-3.7c0.8-0.8,1.7-1.5,2.6-2V84.7l47,58.3h9.5V89.2c0-4.5,0.3-7.9,0.8-10.2
		c0.5-2.3,1.5-4,2.8-4.9c1.5-1.1,3.2-1.8,5-2.1c1.8-0.3,3.3-0.5,4.3-0.6v-4.2H94.1v4.2c1.2,0.2,2.9,0.6,4.9,1.2
		c2,0.6,3.5,1.3,4.6,2.1c1.3,1.1,2.3,2.7,2.9,4.9c0.6,2.2,0.9,5.6,0.9,10.1v28.5L66.1,67.2z"/>
</g>
<g>
	<path class="st0" d="M337.3,69c-1.5,0.2-3.6,0.4-6.3,0.9c-2.7,0.4-5.2,1.5-7.4,3.1c-2,1.4-3.3,3.9-4.2,7.3
		c-0.8,3.5-1.2,8.5-1.2,15.2v80.3h-14.1l-70-86.8v52.7c0,6.5,0.4,11.5,1.3,14.9s2.3,5.9,4.2,7.5c1.4,1.2,3.7,2.2,6.8,3.1
		c3.1,0.9,5.6,1.5,7.4,1.8v6.2h-48.3v-6.2c2.1-0.2,4.4-0.5,7.1-1.1c2.7-0.6,4.9-1.5,6.7-2.8c2.1-1.5,3.5-3.8,4.2-6.9
		s1.1-8.3,1.1-15.6V89.3c0-2.6-0.4-5.1-1.2-7.5c-0.8-2.3-2.1-4.4-3.8-6.1c-1.8-1.8-4-3.2-6.4-4.2c-2.4-1-5.1-1.8-8.2-2.4v-6.3h42.3
		l61.4,76V96.3c0-6.8-0.4-11.8-1.3-15.1c-0.9-3.3-2.3-5.7-4.3-7.3c-1.5-1.2-3.8-2.3-6.8-3.1c-3-0.9-5.4-1.5-7.3-1.8v-6.2h48.2V69z"
		/>
	<path class="st0" d="M424.3,105.9c3.9,3.6,6.9,8,8.9,13.1c2.1,5.1,3.1,10.6,3.1,16.5c0,5.9-1,11.4-3,16.6c-2,5.2-5,9.6-8.9,13.3
		c-4.2,4-9.1,7-14.9,9.1c-5.8,2.1-12.4,3.2-19.8,3.2c-6.4,0-12.4-0.9-17.8-2.8c-5.4-1.8-10.2-4.6-14.4-8.3c-4-3.5-7.2-7.9-9.5-13.1
		s-3.5-11-3.5-17.5c0-6.3,1-12,3-16.9c2-4.9,5.1-9.3,9.1-13.2c3.9-3.7,8.7-6.6,14.4-8.6c5.7-2,12.1-3,19.2-3c7.4,0,13.9,1,19.5,3
		C415.5,99.4,420.3,102.2,424.3,105.9z M404.1,160.8c1.2-3,2-6.5,2.6-10.8s0.8-9.1,0.8-14.7c0-3.7-0.3-7.9-0.8-12.7
		s-1.3-8.5-2.4-11.2c-1.3-3.3-3-5.9-5.3-7.8c-2.2-1.9-5.1-2.8-8.5-2.8c-3.7,0-6.7,1-9,3.1s-4,4.7-5.2,8c-1.1,3-1.9,6.5-2.3,10.6
		s-0.6,8.2-0.6,12.6c0,5.8,0.2,10.5,0.6,14.3c0.4,3.8,1.3,7.6,2.7,11.4c1.2,3.3,3,5.9,5.2,7.8c2.3,1.9,5.1,2.8,8.6,2.8
		c3.2,0,5.9-0.9,8.2-2.7C401,166.8,402.7,164.2,404.1,160.8z"/>
	<path class="st0" d="M505.5,171.5c-3.4,1.5-7,2.8-10.8,4c-3.9,1.2-8.5,1.8-14.1,1.8c-8.2,0-14.3-2-18.3-6c-4-4-6-9.7-6-17.2v-48.6
		H442v-8.6h14.6v-24h25.6v24h22.2v8.6h-22.1v43.3c0,6.2,0.9,10.5,2.6,13.1c1.7,2.6,4.8,3.9,9.3,3.9c1.4,0,3.4-0.1,6-0.3
		c2.5-0.2,4.3-0.4,5.3-0.7V171.5z"/>
	<path class="st0" d="M664.8,136.6c0,11.1-3.7,20.7-11.1,28.7c-7.4,8-16.8,12-28.2,12c-5.1,0-9.2-0.5-12.3-1.5
		c-3.2-1-5.8-2.3-7.8-3.8h-0.6v22.2c0,1.8,0.4,3.5,1.2,4.8c0.8,1.4,2,2.4,3.4,3c1.4,0.6,3.4,1.1,6.1,1.6c2.6,0.5,4.8,0.8,6.5,0.9
		v5.9h-57.2v-5.9c1.3-0.1,3-0.3,5-0.6c2-0.3,3.5-0.6,4.5-0.9c1.7-0.6,2.8-1.6,3.4-3c0.6-1.4,0.9-3,0.9-4.8v-81
		c-0.2-1.7-0.6-3.3-1.2-4.6c-0.7-1.3-1.7-2.5-3.1-3.5c-1.1-0.7-2.5-1.3-4.2-1.7c-1.7-0.4-3.5-0.8-5.1-0.9v-5.8l38.6-2.1l1.2,1v8.8
		l0.6,0.2c3.5-3.5,7.3-6.3,11.6-8.2c4.2-2,8.4-2.9,12.6-2.9c10.9,0,19.5,3.9,25.9,11.6C661.6,113.8,664.8,123.9,664.8,136.6z
		 M636.3,136.9c0-4-0.3-7.7-0.9-11.4c-0.6-3.6-1.6-6.8-3.1-9.7c-1.4-2.8-3.3-5.1-5.6-6.8c-2.3-1.7-5.2-2.5-8.6-2.5
		c-3.4,0-6.2,0.6-8.2,1.8c-2.1,1.2-3.8,2.7-5.4,4.6v44.9c0.3,1.1,0.9,2.4,1.8,4.1c0.9,1.7,1.8,3,2.7,4c1.3,1.4,2.8,2.5,4.5,3.2
		c1.7,0.7,3.5,1,5.5,1c5.2,0,9.4-2.8,12.5-8.4C634.8,156,636.3,147.7,636.3,136.9z"/>
	<path class="st0" d="M765.5,173.4c-2.3,1-5.1,1.9-8.2,2.8c-3.2,0.8-6.5,1.3-10,1.3c-6.5,0-11.2-1-14.3-2.9
		c-3.1-1.9-5.1-4.7-6.2-8.3h-0.5c-1.8,1.8-3.5,3.3-5.2,4.6c-1.7,1.3-3.5,2.3-5.4,3.2c-2.5,1.2-4.9,2-7.2,2.6
		c-2.3,0.6-5.5,0.9-9.6,0.9c-6.1,0-11.4-1.8-15.7-5.4c-4.3-3.6-6.5-8.4-6.5-14.4c0-3.4,0.5-6.4,1.4-8.8c1-2.4,2.3-4.5,4-6.4
		c1.6-1.7,3.4-3.1,5.5-4.2c2.1-1.1,4.4-2.1,6.9-3.1c4.8-1.7,10.5-3.6,17.1-5.4c6.7-1.9,11.5-3.6,14.6-5v-7.6c0-1.3-0.1-3.1-0.3-5.2
		s-0.7-4-1.3-5.5c-0.7-1.7-1.9-3.1-3.5-4.3c-1.6-1.2-3.7-1.7-6.3-1.7c-2.3,0-4.3,0.3-5.8,1c-1.6,0.7-2.8,1.3-3.8,2
		c0.2,1.1,0.6,2.7,1.3,4.8c0.7,2.2,1.1,4.2,1.1,6.3c0,0.9-0.2,2-0.7,3.4c-0.5,1.3-1.2,2.4-2.1,3.2c-1.2,1.1-2.6,1.9-4.1,2.5
		c-1.5,0.6-3.8,0.9-6.9,0.9c-4.4,0-7.8-1.1-10.1-3.2c-2.3-2.1-3.4-4.9-3.4-8.4c0-3,1.2-5.6,3.5-8c2.3-2.3,5.2-4.3,8.6-5.8
		c3.3-1.6,7.2-2.8,11.5-3.7s8.3-1.3,12-1.3c5.1,0,9.8,0.3,14.1,0.9c4.3,0.6,8.1,1.9,11.6,3.8c3.3,1.8,5.9,4.5,7.8,8
		c1.9,3.5,2.9,8.1,2.9,13.7c0,6-0.1,13-0.4,21.2c-0.2,8.2-0.4,13.6-0.4,16.1c0,2.4,0.4,4.2,1.1,5.6c0.7,1.4,1.8,2.4,3.3,3.1
		c0.9,0.4,2.3,0.7,4.2,0.8s3.7,0.1,5.3,0.1V173.4z M726.2,132.2c-3,1-5.9,2.2-8.8,3.5c-2.9,1.3-5.3,2.7-7.1,4.1
		c-2,1.5-3.5,3.4-4.6,5.7c-1.1,2.3-1.7,5-1.7,8.1c0,4.1,0.9,7.1,2.8,9c1.9,1.9,4.2,2.8,7,2.8c2.9,0,5.3-0.6,7.2-1.8
		c1.9-1.2,3.5-2.7,5-4.4L726.2,132.2z"/>
	<path class="st0" d="M808.2,177.8c-5.1,0-10.1-0.8-15-2.3c-4.9-1.5-8.7-3.1-11.4-4.8l-2.4,5.4h-6.2l-1-29.5h5.8
		c0.8,2.4,2.1,5.1,4,8c1.8,3,4,5.7,6.3,8c2.5,2.4,5.3,4.4,8.5,6c3.2,1.6,6.6,2.5,10.3,2.5c4.8,0,8.4-0.9,10.7-2.8s3.5-4.8,3.5-8.7
		c0-2.1-0.5-3.9-1.6-5.2s-2.5-2.6-4.4-3.6c-2.1-1.1-4.3-2-6.8-2.7c-2.5-0.7-5.5-1.6-9.1-2.7c-3.6-1.1-6.7-2.1-9.2-3.2
		c-2.6-1.1-5.2-2.8-8-5.1c-2.4-2.1-4.3-4.5-5.7-7.4c-1.4-2.9-2.1-6.4-2.1-10.4c0-7.4,3.1-13.5,9.4-18c6.3-4.6,14.4-6.9,24.6-6.9
		c4.8,0,9.2,0.5,13.3,1.5c4,1,7.4,2,10.2,3.2l1.7-4.7h6l1.3,27h-5.5c-1.8-5.5-5-10.2-9.5-14.2c-4.5-4-9.3-6-14.5-6
		c-4.1,0-7.3,0.8-9.6,2.5s-3.5,4-3.5,7c0,4,1.7,6.9,5.1,8.7c3.4,1.8,8.2,3.5,14.3,5.1c9.4,2.4,16.3,5.7,20.7,9.9s6.6,9.5,6.6,16
		c0,8.7-3.4,15.4-10.2,20.1C828,175.4,819.1,177.8,808.2,177.8z"/>
	<path class="st0" d="M913.6,171.5c-3.4,1.5-7,2.8-10.8,4c-3.9,1.2-8.5,1.8-14.1,1.8c-8.2,0-14.3-2-18.3-6c-4-4-6-9.7-6-17.2v-48.6
		h-14.2v-8.6h14.6v-24h25.6v24h22.2v8.6h-22.1v43.3c0,6.2,0.9,10.5,2.6,13.1c1.7,2.6,4.8,3.9,9.3,3.9c1.4,0,3.4-0.1,6-0.3
		s4.3-0.4,5.3-0.7V171.5z"/>
	<path class="st0" d="M1004.2,156.2c-1.8,3-4.1,5.8-6.7,8.5c-2.6,2.7-5.6,4.9-8.9,6.8c-3.5,2-7.1,3.5-10.7,4.6
		c-3.6,1-7.8,1.5-12.5,1.5c-7.8,0-14.6-1.1-20.2-3.3c-5.7-2.2-10.4-5.2-14.1-8.9c-3.7-3.7-6.5-8.2-8.3-13.3
		c-1.8-5.1-2.7-10.6-2.7-16.6c0-5.4,1-10.5,3-15.5c2-4.9,4.8-9.3,8.4-13.2c3.6-3.7,8.1-6.8,13.6-9.1c5.5-2.3,11.6-3.5,18.3-3.5
		c7.4,0,13.5,0.9,18.2,2.7c4.7,1.8,8.7,4.3,11.8,7.4c3,3,5.2,6.6,6.6,10.6c1.4,4.1,2.1,8.4,2.1,12.9v5.1h-53.5
		c0,10.8,2.1,19.1,6.3,24.7c4.2,5.6,10.8,8.5,19.9,8.5c5,0,9.4-1.4,13.4-4.1s7.3-6.2,10.1-10.3L1004.2,156.2z M974,126.1
		c0-3.2-0.2-6.4-0.5-9.7c-0.3-3.3-0.9-6-1.7-8.2c-0.9-2.5-2.1-4.4-3.7-5.6c-1.6-1.3-3.5-1.9-5.9-1.9c-4.1,0-7.3,2.1-9.7,6.2
		c-2.4,4.1-3.7,10.6-4,19.6L974,126.1z"/>
</g>
<path class="st0" d="M554.5,98.8c0-0.7-0.2-1.4-0.5-2c-0.2-0.4-0.5-0.8-0.8-1.2c-0.5-0.5-1-0.8-1.6-1c-0.5-0.2-1.1-0.3-1.6-0.3
	h-29.9c-0.6,0-1.1,0.1-1.7,0.3c-0.6,0.2-1.1,0.6-1.5,1c-0.3,0.3-0.6,0.8-0.8,1.2c-0.3,0.6-0.5,1.3-0.5,2l0,32.6l0,34.9v9.5
	c0,0.9,0.3,1.8,0.8,2.5l3.2,4.7l11.8,17.5c0.3,0.4,0.6,0.7,1,1c0.8,0.6,1.8,1,2.8,1c0.5,0,0.9-0.1,1.4-0.2c0.7-0.2,1.3-0.6,1.9-1.1
	c0.2-0.2,0.4-0.4,0.6-0.7l11.8-17.5l3.2-4.7c0.5-0.7,0.8-1.6,0.8-2.5v-9.5l0-34.7L554.5,98.8z M542.1,178.8
	c-3.9,3.9-10.2,3.9-14.1,0l-1.5-1.5v0c-1.2-1.9-1.9-4-1.9-6.3l0-67.7h20.8l0,67.7c0,2.2-0.7,4.4-1.9,6.3v0L542.1,178.8z"/>
</svg>
